# xmcd
#
# Track frame offsets: 
#        150
#        24144
#        38677
#        63476
#        84478
#        101843
#        117856
#        133585
#        147570
#        166962
#        181623
#        197542
#        218119
#        227666
#
# Disc length: 3299 seconds
#
# Revision: 0
# Processed by: cddbd v1.5.2PL0 Copyright (c) Steve Scherf et al.
# Submitted via: ExactAudioCopyFreeDBPlugin 1.0
#
DISCID=b60ce10e
DTITLE=Levee Town - Pages of Paperwork
DYEAR=2011
DGENRE=Blues
TTITLE0=Paperwork
TTITLE1=Lowdown
TTITLE2=Hurt But Strong
TTITLE3=Song She Sang
TTITLE4=Funny Money
TTITLE5=Shoe Them Watcha Got
TTITLE6=Angel On My Shoulder
TTITLE7=Four Leaf Clover
TTITLE8=I'm Gonna Leave
TTITLE9=It's Been So Long
TTITLE10=The Ring
TTITLE11=So Many Pages
TTITLE12=Don't Wanna Wait
TTITLE13=When You Comin' Home
EXTD=
EXTT0=
EXTT1=
EXTT2=
EXTT3=
EXTT4=
EXTT5=
EXTT6=
EXTT7=
EXTT8=
EXTT9=
EXTT10=
EXTT11=
EXTT12=
EXTT13=
PLAYORDER=
